<?xml version="1.0" encoding="utf-8"?>
<!-- Generator: Adobe Illustrator 15.0.0, SVG Export Plug-In . SVG Version: 6.00 Build 0)  -->
<!DOCTYPE svg PUBLIC "-//W3C//DTD SVG 1.1//EN" "http://www.w3.org/Graphics/SVG/1.1/DTD/svg11.dtd">
<svg version="1.1" id="レイヤー_1" xmlns="http://www.w3.org/2000/svg" xmlns:xlink="http://www.w3.org/1999/xlink" x="0px"
	 y="0px" width="16px" height="16px" viewBox="0 0 16 16" style="enable-background:new 0 0 16 16;" xml:space="preserve">
<style type="text/css">
<![CDATA[
	.st0{fill:#333333;}
]]>
</style>
<path class="st0" d="M13.776,1.942C12.19,0.547,9.54,0.958,7.866,2.861L1.867,9.675c-1.314,1.495-1.356,3.536-0.092,4.649
	c1.204,1.061,3.082,0.689,4.466-0.885l6.042-6.865c1.312-1.488,0.726-2.399,0.261-2.809c-0.827-0.731-1.921-0.527-2.852,0.527
	L4.981,9.646c-0.192,0.218-0.17,0.549,0.046,0.741c0.218,0.191,0.55,0.171,0.742-0.047l4.712-5.353
	c0.303-0.344,0.884-0.86,1.369-0.434c0.137,0.121,0.457,0.402-0.356,1.326l-6.041,6.864c-0.816,0.929-2.099,1.572-2.984,0.792
	c-0.821-0.723-0.739-2.114,0.187-3.168l5.998-6.814c1.291-1.466,3.277-1.835,4.429-0.822c1.532,1.349,0.868,3.205-0.262,4.492
	l-4.829,5.485c-0.192,0.218-0.17,0.55,0.046,0.741c0.218,0.191,0.551,0.172,0.742-0.048l4.829-5.483
	C15.452,5.823,15.519,3.478,13.776,1.942z"/>
</svg>
