<?xml version="1.0" encoding="utf-8"?>
<!-- Generator: Adobe Illustrator 15.0.0, SVG Export Plug-In . SVG Version: 6.00 Build 0)  -->
<!DOCTYPE svg PUBLIC "-//W3C//DTD SVG 1.1//EN" "http://www.w3.org/Graphics/SVG/1.1/DTD/svg11.dtd">
<svg version="1.1" id="レイヤー_1" xmlns="http://www.w3.org/2000/svg" xmlns:xlink="http://www.w3.org/1999/xlink" x="0px"
	 y="0px" width="16px" height="16px" viewBox="0 0 16 16" style="enable-background:new 0 0 16 16;" xml:space="preserve">
<style type="text/css">
<![CDATA[
	.st0{fill:#E8E8E8;}
	.st1{fill:#999999;}
]]>
</style>
<rect class="st0" width="16" height="16"/>
<g>
	<path class="st1" d="M11.451,3.272c0.157-0.177,0.353-0.254,0.548-0.254c0.197,0,0.393,0.098,0.59,0.293
		c0.195,0.196,0.293,0.392,0.293,0.607c0,0.177-0.079,0.372-0.235,0.529L9.001,8.073l3.645,3.644
		c0.177,0.177,0.254,0.354,0.254,0.549c0,0.196-0.098,0.393-0.294,0.588c-0.195,0.196-0.391,0.295-0.607,0.295
		c-0.176,0-0.371-0.079-0.527-0.236L7.825,9.268l-3.645,3.645c-0.176,0.157-0.352,0.236-0.529,0.236
		c-0.215,0-0.431-0.099-0.607-0.295c-0.196-0.195-0.293-0.392-0.293-0.588c0-0.195,0.078-0.372,0.254-0.549L6.63,8.073L3.005,4.448
		C2.829,4.291,2.751,4.096,2.751,3.919c0-0.215,0.098-0.412,0.313-0.607c0.177-0.196,0.373-0.293,0.588-0.293
		c0.196,0,0.372,0.078,0.549,0.254l3.625,3.625L11.451,3.272z"/>
</g>
</svg>
